{"title":"Five 2011 HDTVRiP XViD-OCW","uid":6769660,"size":719688389,"categoryP":"video","categoryS":"movies","magnet":"?xt=urn:btih:256b6c01cf56ae557f4564e0baad1c3877972759&amp;dn=Five+2011+HDTVRiP+XViD-OCW&amp;tr=udp%3A%2F%2Ftracker.openbittorrent.com%3A80&amp;tr=udp%3A%2F%2Fopen.demonii.com%3A1337&amp;tr=udp%3A%2F%2Ftracker.coppersurfer.tk%3A6969&amp;tr=udp%3A%2F%2Fexodus.desync.com%3A6969","seeders":0,"leechers":1,"uploader":"LegendET","files":2,"time":1319533295,"description":"\n\n[img]http://img27.imageshack.us/img27/2394/ioluil.jpg[/img]\n\n\n\n\nGenre : Comedy / Drama\n\nPlot : An anthology of five short films exploring the impact of breast cancer on people's lives.[/quote]\n\n\n\nComplete name : Five.2011.HDTV.XViD.OCW.avi \nFormat : AVI \nFormat/Info : Audio Video Interleave \nFile size : 686 MiB \nDuration : 1h 30mn \nOverall bit rate : 1 065 Kbps \nWriting library : MPlayer \n\nVideo \nID : 0 \nFormat : MPEG-4 Visual \nFormat profile : Advanced Simple@L5 \nFormat settings, BVOP : 2 \nFormat settings, QPel : No \nFormat settings, GMC : No warppoints \nFormat settings, Matrix : Default (H.263) \nCodec ID : XVID \nCodec ID/Hint : XviD \nDuration : 1h 30mn \nBit rate : 797 Kbps \nWidth : 720 pixels \nHeight : 304 pixels \nDisplay aspect ratio : 2.35:1 \nFrame rate : 23.976 fps \nColor space : YUV \nChroma subsampling : 4:2:0 \nBit depth : 8 bits \nScan type : Progressive \nCompression mode : Lossy \nBits/(Pixel*Frame) : 0.152 \nStream size : 514 MiB (75%) \nWriting library : XviD 63 \n\nAudio \nID : 1 \nFormat : MPEG Audio \nFormat version : Version 1 \nFormat profile : Layer 3 \nMode : Joint stereo \nMode extension : MS Stereo \nCodec ID : 55 \nCodec ID/Hint : MP3 \nDuration : 1h 30mn \nBit rate mode : Constant \nBit rate : 256 Kbps \nChannel(s) : 2 channels \nSampling rate : 44.1 KHz \nCompression mode : Lossy \nDelay relative to video : 42ms \nStream size : 165 MiB (24%) \nAlignment : Aligned on interleaves \nInterleave, duration : 26 ms (0.63 video frame) \nInterleave, preload duration : 809 ms \nWriting library : LAME3.98.4\n &lt;a href=&quot;\nhttp://www.imdb.com/title/tt1877740/&quot; rel=&quot;nofollow&quot; target=&quot;_NEW&quot;&gt;\nhttp://www.imdb.com/title/tt1877740/&lt;/a&gt;\n\n\n\n[img]http://img163.imageshack.us/img163/113/vlcsnap2011102423h19m34.png[/img]\n[img]http://img560.imageshack.us/img560/9290/vlcsnap2011102423h19m15.png[/img]\n[img]http://img94.imageshack.us/img94/9148/vlcsnap2011102423h18m55.png[/img]\n[img]http://img23.imageshack.us/img23/2756/vlcsnap2011102423h20m24.png[/img]\n[img]http://img12.imageshack.us/img12/8568/vlcsnap2011102423h20m05.png[/img]\n","torrent":{"xt":"urn:btih:256b6c01cf56ae557f4564e0baad1c3877972759","amp;dn":"Five+2011+HDTVRiP+XViD-OCW","amp;tr":["udp%3A%2F%2Ftracker.openbittorrent.com%3A80","udp%3A%2F%2Fopen.demonii.com%3A1337","udp%3A%2F%2Ftracker.coppersurfer.tk%3A6969","udp%3A%2F%2Fexodus.desync.com%3A6969"],"infoHash":"256b6c01cf56ae557f4564e0baad1c3877972759","infoHashBuffer":{"type":"Buffer","data":[37,107,108,1,207,86,174,85,127,69,100,224,186,173,28,56,119,151,39,89]},"announce":[],"urlList":[]}}